HIERARCHY
ROOT Hips
{
	OFFSET 0.000000 0.000000 0.000000
	CHANNELS 6 Xposition Yposition Zposition Zrotation Yrotation Xrotation 
	JOINT LHipJoint
	{
		OFFSET 0.000000 0.000000 0.000000
		CHANNELS 3 Zrotation Yrotation Xrotation
		JOINT LeftUpLeg
		{
			OFFSET 1.363060 -1.794630 0.839290
			CHANNELS 3 Zrotation Yrotation Xrotation
			JOINT LeftLeg
			{
				OFFSET 2.448110 -6.726130 0.000000
				CHANNELS 3 Zrotation Yrotation Xrotation
				JOINT LeftFoot
				{
					OFFSET 2.562200 -7.039590 0.000000
					CHANNELS 3 Zrotation Yrotation Xrotation
					JOINT LeftToeBase
					{
						OFFSET 0.157640 -0.433110 2.322550
						CHANNELS 3 Zrotation Yrotation Xrotation
						End Site
						{
							OFFSET 0.000000 0.000000 0.000000
						}
					}
				}
			}
		}
	}
	JOINT RHipJoint
	{
		OFFSET 0.000000 0.000000 0.000000
		CHANNELS 3 Zrotation Yrotation Xrotation
		JOINT RightUpLeg
		{
			OFFSET -1.305520 -1.794630 0.839290
			CHANNELS 3 Zrotation Yrotation Xrotation
			JOINT RightLeg
			{
				OFFSET -2.542530 -6.985550 0.000000
				CHANNELS 3 Zrotation Yrotation Xrotation
				JOINT RightFoot
				{
					OFFSET -2.568260 -7.056230 0.000000
					CHANNELS 3 Zrotation Yrotation Xrotation
					JOINT RightToeBase
					{
						OFFSET -0.164730 -0.452590 2.363150
						CHANNELS 3 Zrotation Yrotation Xrotation
						End Site
						{
							OFFSET 0.000000 0.000000 0.000000
						}
					}
				}
			}
		}
	}
	JOINT LowerBack
	{
		OFFSET 0.000000 0.000000 0.000000
		CHANNELS 3 Zrotation Yrotation Xrotation
		JOINT Spine
		{
			OFFSET 0.028270 2.035590 -0.193380
			CHANNELS 3 Zrotation Yrotation Xrotation
			JOINT Spine1
			{
				OFFSET 0.056720 2.048850 -0.042750
				CHANNELS 3 Zrotation Yrotation Xrotation
				JOINT Neck
				{
					OFFSET 0.000000 0.000000 0.000000
					CHANNELS 3 Zrotation Yrotation Xrotation
					JOINT Neck1
					{
						OFFSET -0.054170 1.746240 0.172020
						CHANNELS 3 Zrotation Yrotation Xrotation
						JOINT Head
						{
							OFFSET 0.104070 1.761360 -0.123970
							CHANNELS 3 Zrotation Yrotation Xrotation
							End Site
							{
								OFFSET 0.000000 0.000000 0.000000
							}
						}
					}
				}
				JOINT LeftShoulder
				{
					OFFSET 0.000000 0.000000 0.000000
					CHANNELS 3 Zrotation Yrotation Xrotation
					JOINT LeftArm
					{
						OFFSET 3.362410 1.200890 -0.311210
						CHANNELS 3 Zrotation Yrotation Xrotation
						JOINT LeftForeArm
						{
							OFFSET 4.983000 -0.000000 -0.000000
							CHANNELS 3 Zrotation Yrotation Xrotation
							JOINT LeftHand
							{
								OFFSET 3.483560 -0.000000 -0.000000
								CHANNELS 3 Zrotation Yrotation Xrotation
								JOINT LeftFingerBase
								{
									OFFSET 0.000000 0.000000 0.000000
									CHANNELS 3 Zrotation Yrotation Xrotation
									JOINT LeftHandIndex1
									{
										OFFSET 0.715260 -0.000000 -0.000000
										CHANNELS 3 Zrotation Yrotation Xrotation
										End Site
										{
											OFFSET 0.000000 0.000000 0.000000
										}
									}
								}
								JOINT LThumb
								{
									OFFSET 0.000000 0.000000 0.000000
									CHANNELS 3 Zrotation Yrotation Xrotation
									End Site
									{
										OFFSET 0.000000 0.000000 0.000000
									}
								}
							}
						}
					}
				}
				JOINT RightShoulder
				{
					OFFSET 0.000000 0.000000 0.000000
					CHANNELS 3 Zrotation Yrotation Xrotation
					JOINT RightArm
					{
						OFFSET -3.136600 1.374050 -0.404650
						CHANNELS 3 Zrotation Yrotation Xrotation
						JOINT RightForeArm
						{
							OFFSET -5.241900 -0.000000 -0.000000
							CHANNELS 3 Zrotation Yrotation Xrotation
							JOINT RightHand
							{
								OFFSET -3.444170 -0.000000 -0.000000
								CHANNELS 3 Zrotation Yrotation Xrotation
								JOINT RightFingerBase
								{
									OFFSET 0.000000 0.000000 0.000000
									CHANNELS 3 Zrotation Yrotation Xrotation
									JOINT RightHandIndex1
									{
										OFFSET -0.622530 -0.000000 -0.000000
										CHANNELS 3 Zrotation Yrotation Xrotation
										End Site
										{
											OFFSET 0.000000 0.000000 0.000000
										}
									}
								}
								JOINT RThumb
								{
									OFFSET 0.000000 0.000000 0.000000
									CHANNELS 3 Zrotation Yrotation Xrotation
									End Site
									{
										OFFSET 0.000000 0.000000 0.000000
									}
								}
							}
						}
					}
				}
			}
		}
	}
}
MOTION
Frames: 11
Frame Time: 0.008333
16.304822 16.301589 -4.178480 -168.311803 -82.664440 -166.639521 7.271182 2.056104 0.249071 -25.874471 -14.423887 -52.623736 5.602931 16.013130 44.052949 0.434833 -1.206033 -8.560726 0.000200 0.101300 0.278200 -6.270799 -1.859733 0.797712 13.397292 21.758051 -60.973357 -18.162055 -22.141951 84.267686 -0.105626 -2.772788 -10.380930 -1.411800 7.515000 -21.250400 0.705665 0.063769 30.831834 0.844443 -0.354023 1.452626 -2.811634 -0.337991 -7.632819 -1.227216 3.009213 2.271527 4.720073 2.479229 -10.221070 -0.205900 0.449500 -5.598100 -5.247073 -6.340909 1.969309 -74.545218 -0.305265 34.751509 18.540246 -28.779578 -5.444231 -0.683359 -0.226450 -24.730476 20.406745 9.758490 3.696700 -7.125000 0.000000 0.000000 -5.146300 40.234800 0.606400 6.627004 4.886889 1.397299 76.542670 -0.157380 32.707783 -21.474146 32.350685 -6.586898 0.569032 -0.498914 -4.210159 -20.020518 -6.648053 2.264400 7.125000 0.000000 0.000000 5.199500 -36.399300 1.103300 
16.406567 16.315330 -4.178177 -167.964879 -82.835447 -166.849854 7.238465 2.049724 0.255808 -25.811971 -14.380510 -52.932674 5.450609 15.863526 43.461598 0.426394 -1.375115 -7.876927 0.001700 0.262600 0.721400 -6.325727 -1.856371 0.784375 13.731323 21.499675 -60.126829 -18.291036 -22.156891 84.614749 -0.097062 -2.572323 -9.706025 -1.358300 7.377200 -20.837800 0.761222 0.023186 30.791358 0.850937 -0.378239 1.444314 -2.813823 -0.350032 -7.638557 -1.229791 2.989986 2.274500 4.736102 2.454263 -10.240898 -0.196600 0.436100 -5.607200 -5.245893 -6.342946 1.969052 -74.539481 -0.322748 34.741262 18.547561 -28.785845 -5.447563 -0.683143 -0.225668 -24.728008 20.411763 9.743528 3.691700 -7.125000 0.000000 0.000000 -5.140200 40.218700 0.607700 6.626744 4.886239 1.396864 76.525710 -0.158342 32.714418 -21.522656 32.398681 -6.611378 0.569423 -0.498956 -4.237837 -20.039987 -6.650709 2.267600 7.125000 0.000000 0.000000 5.183400 -36.402800 1.099400 
16.508008 16.327859 -4.178480 -167.491161 -83.001961 -167.210053 7.206266 2.041791 0.262267 -25.734805 -14.331715 -53.218582 5.303735 15.714916 42.884285 0.420116 -1.539143 -7.207995 0.004400 0.428300 1.176900 -6.383560 -1.850822 0.766583 14.107618 21.248315 -59.233667 -18.377351 -22.167369 84.841838 -0.091794 -2.333339 -8.955862 -1.296800 7.214800 -20.353300 0.825443 -0.013001 30.766964 0.858710 -0.394441 1.439223 -2.817624 -0.358892 -7.641877 -1.230570 2.971920 2.280216 4.755569 2.431573 -10.264400 -0.186000 0.423200 -5.618300 -5.244672 -6.345099 1.969103 -74.540266 -0.342029 34.736267 18.550730 -28.787644 -5.448788 -0.682881 -0.224708 -24.700933 20.411762 9.734500 3.688000 -7.125000 0.000000 0.000000 -5.139400 40.208600 0.608900 6.627350 4.884865 1.396862 76.506052 -0.154344 32.715156 -21.551186 32.427432 -6.627168 0.569144 -0.501145 -4.207729 -20.104522 -6.631946 2.267500 7.125000 0.000000 0.000000 5.127200 -36.384100 1.089800 
16.609247 16.339377 -4.179390 -167.006915 -83.158035 -167.607087 7.175619 2.032971 0.268613 -25.659469 -14.278348 -53.475435 5.161594 15.566947 42.318616 0.416027 -1.698702 -6.559811 0.008700 0.601600 1.653300 -6.443290 -1.842506 0.744042 14.505735 21.008535 -58.296892 -18.419877 -22.173313 84.945787 -0.086468 -2.083230 -8.109639 -1.231700 7.038400 -19.829200 0.879003 -0.043076 30.760051 0.866813 -0.406689 1.436985 -2.815019 -0.366420 -7.643842 -1.232377 2.958452 2.288483 4.776880 2.414730 -10.291268 -0.174800 0.413000 -5.631200 -5.243540 -6.347562 1.969313 -74.549474 -0.358375 34.732635 18.551113 -28.786977 -5.448678 -0.682569 -0.222764 -24.659525 20.421995 9.715566 3.682100 -7.125000 0.000000 0.000000 -5.128600 40.188200 0.610200 6.628534 4.882602 1.397349 76.481602 -0.143616 32.712004 -21.573331 32.449127 -6.639645 0.569291 -0.502364 -4.174909 -20.150541 -6.630856 2.272200 7.125000 0.000000 0.000000 5.088000 -36.384200 1.081400 
16.710586 16.349380 -4.181107 -166.567147 -83.303143 -167.982907 7.146619 2.023591 0.275155 -25.591645 -14.221537 -53.706630 5.024638 15.420680 41.767154 0.413767 -1.852633 -5.930620 0.014600 0.781100 2.146800 -6.503834 -1.831361 0.716838 14.917161 20.780821 -57.325000 -18.418637 -22.174799 84.927458 -0.083613 -1.812061 -7.178454 -1.166100 6.855000 -19.286600 0.914800 -0.065956 30.769075 0.874427 -0.416307 1.437060 -2.804845 -0.373031 -7.645587 -1.234787 2.949089 2.299495 4.801783 2.403610 -10.320281 -0.162500 0.405100 -5.645400 -5.242780 -6.350363 1.969624 -74.565225 -0.372625 34.731821 18.548214 -28.783406 -5.447224 -0.682430 -0.220270 -24.608675 20.441082 9.694833 3.677100 -7.125000 0.000000 0.000000 -5.109800 40.166000 0.610800 6.630221 4.879595 1.398347 76.449801 -0.125197 32.721894 -21.585641 32.460840 -6.646915 0.569843 -0.502983 -4.151280 -20.190803 -6.638571 2.279700 7.125000 0.000000 0.000000 5.054500 -36.393900 1.073000 
16.812027 16.357261 -4.183734 -166.182724 -83.432832 -168.323441 7.118902 2.013692 0.282184 -25.529304 -14.162051 -53.919831 4.893632 15.277006 41.233157 0.412291 -1.987015 -5.322723 0.021400 0.945000 2.597500 -6.564909 -1.817541 0.685280 15.339667 20.574360 -56.323950 -18.375190 -22.171919 84.791195 -0.086214 -1.512818 -6.204249 -1.102500 6.671600 -18.746000 0.931658 -0.079646 30.789918 0.880754 -0.421458 1.438856 -2.790674 -0.377667 -7.646679 -1.235620 2.941808 2.311742 4.829741 2.395628 -10.346847 -0.149500 0.398600 -5.658900 -5.242411 -6.353132 1.970029 -74.582048 -0.379600 34.736147 18.544175 -28.779246 -5.445119 -0.681973 -0.217420 -24.571473 20.462023 9.658590 3.666300 -7.125000 0.000000 0.000000 -5.087700 40.127100 0.613000 6.631922 4.876106 1.399509 76.418736 -0.102157 32.735195 -21.592619 32.466644 -6.651178 0.570738 -0.502924 -4.136346 -20.217860 -6.657365 2.290100 7.125000 0.000000 0.000000 5.032800 -36.415300 1.065700 
16.913570 16.363525 -4.186866 -165.930760 -83.553003 -168.550693 7.092953 2.003648 0.290000 -25.486188 -14.102297 -54.116533 4.768705 15.136673 40.718074 0.411705 -2.102660 -4.733906 0.028300 1.085600 2.984400 -6.624587 -1.801184 0.649706 15.761659 20.378839 -55.303752 -18.289885 -22.163958 84.539103 -0.095820 -1.174619 -5.209514 -1.033800 6.467000 -18.145700 0.928786 -0.086998 30.822062 0.884890 -0.426008 1.441058 -2.774132 -0.381895 -7.649761 -1.236301 2.934442 2.322352 4.861986 2.388352 -10.366161 -0.135200 0.392700 -5.668600 -5.242558 -6.355816 1.970180 -74.599959 -0.378839 34.748518 18.540644 -28.775840 -5.443038 -0.681409 -0.214974 -24.553395 20.478420 9.621447 3.654400 -7.125000 0.000000 0.000000 -5.069400 40.087300 0.615800 6.633162 4.872917 1.400596 76.389571 -0.077488 32.747554 -21.594232 32.466693 -6.652360 0.571361 -0.502689 -4.111830 -20.232090 -6.674684 2.298600 7.125000 0.000000 0.000000 5.021900 -36.434800 1.061000 
17.015314 16.367971 -4.190807 -165.771940 -83.663209 -168.697507 7.067822 1.993372 0.298668 -25.455903 -14.039577 -54.307970 4.650006 15.000486 40.223214 0.411537 -2.198561 -4.159134 0.034700 1.202200 3.305300 -6.682845 -1.782658 0.610501 16.191105 20.199879 -54.271212 -18.164741 -22.150703 84.176506 -0.113811 -0.792935 -4.258976 -0.964100 6.251600 -17.516200 0.912104 -0.087748 30.857553 0.886935 -0.427723 1.443985 -2.758934 -0.384786 -7.650792 -1.234910 2.924430 2.329213 4.896660 2.378118 -10.377161 -0.120500 0.385700 -5.674200 -5.243035 -6.357987 1.970226 -74.615359 -0.373763 34.770431 18.539326 -28.775328 -5.441876 -0.680979 -0.213412 -24.556535 20.490562 9.593550 3.645400 -7.125000 0.000000 0.000000 -5.055800 40.057300 0.617900 6.633919 4.869854 1.401583 76.366048 -0.048212 32.755872 -21.598326 32.468981 -6.654402 0.572805 -0.501091 -4.111072 -20.219637 -6.718247 2.314200 7.125000 0.000000 0.000000 5.035700 -36.482100 1.058100 
17.117563 16.370901 -4.195353 -165.699240 -83.769874 -168.768855 7.043106 1.982941 0.308444 -25.438396 -13.976012 -54.499509 4.536425 14.867579 39.745510 0.411981 -2.275566 -3.590568 0.040300 1.296300 3.564600 -6.738439 -1.762400 0.568200 16.629841 20.026291 -53.237326 -18.000952 -22.131365 83.706874 -0.138297 -0.380630 -3.384030 -0.892100 6.020400 -16.843500 0.888850 -0.085253 30.896377 0.887150 -0.428106 1.446573 -2.747648 -0.387006 -7.652015 -1.232461 2.910112 2.328933 4.932710 2.362895 -10.377603 -0.105400 0.376800 -5.673700 -5.243624 -6.359707 1.969922 -74.628589 -0.363876 34.804375 18.541451 -28.778296 -5.441905 -0.680781 -0.213872 -24.575265 20.480781 9.597952 3.645300 -7.125000 0.000000 0.000000 -5.065000 40.061400 0.618500 6.634034 4.867568 1.402180 76.351272 -0.018327 32.752650 -21.597962 32.466908 -6.654526 0.573887 -0.500428 -4.088298 -20.219599 -6.753275 2.327800 7.125000 0.000000 0.000000 5.038400 -36.520100 1.054000 
17.220216 16.372719 -4.200405 -165.686496 -83.875766 -168.785569 7.018449 1.972343 0.319328 -25.430332 -13.914094 -54.695511 4.427007 14.737383 39.281146 0.413017 -2.336045 -3.023572 0.045500 1.376000 3.784000 -6.790736 -1.740697 0.523051 17.081152 19.852905 -52.209391 -17.799386 -22.105006 83.131842 -0.164931 0.025526 -2.605941 -0.819800 5.777300 -16.139700 0.864536 -0.081916 30.931380 0.886047 -0.428486 1.449232 -2.741735 -0.389162 -7.649287 -1.226848 2.891830 2.318987 4.966463 2.342762 -10.369605 -0.091900 0.365900 -5.667600 -5.244022 -6.360751 1.969389 -74.640219 -0.352517 34.847072 18.547746 -28.785690 -5.443769 -0.680786 -0.215678 -24.601229 20.458669 9.626260 3.652600 -7.125000 0.000000 0.000000 -5.087600 40.091100 0.617500 6.633600 4.865749 1.402430 76.346145 0.011599 32.734343 -21.606239 32.473226 -6.658774 0.575578 -0.498533 -4.089246 -20.191697 -6.810142 2.346600 7.125000 0.000000 0.000000 5.066400 -36.581000 1.052300 
17.323476 16.373730 -4.206164 -165.699644 -83.984863 -168.777549 6.993629 1.961574 0.331265 -25.426215 -13.856580 -54.895629 4.320500 14.608440 38.825160 0.414840 -2.379369 -2.452927 0.050100 1.444500 3.972900 -6.839238 -1.717863 0.475339 17.550167 19.671900 -51.194016 -17.561006 -22.070343 82.453785 -0.190582 0.395862 -1.949467 -0.761900 5.574200 -15.553900 0.842693 -0.079678 30.960063 0.884737 -0.429282 1.452169 -2.738009 -0.391343 -7.641752 -1.219973 2.871209 2.301665 4.995997 2.319191 -10.358838 -0.080300 0.353600 -5.658800 -5.244035 -6.361352 1.968675 -74.654176 -0.341848 34.891091 18.553779 -28.792765 -5.445243 -0.680720 -0.218316 -24.619801 20.419865 9.670782 3.663100 -7.125000 0.000000 0.000000 -5.127000 40.137400 0.616500 6.633194 4.863897 1.402529 76.344290 0.039105 32.714082 -21.613558 32.479373 -6.663273 0.577021 -0.498009 -4.077747 -20.197812 -6.852523 2.363600 7.125000 0.000000 0.000000 5.064300 -36.626700 1.046200 
